<svg xmlns="http://www.w3.org/2000/svg" viewBox="0 0 64 64" role="img" aria-label="Aegean Sun logo">
  <circle cx="32" cy="32" r="30" fill="#5b2c53"/>
  <circle cx="32" cy="26" r="13" fill="#f4b76a" opacity=".9"/>
  <path d="M32 20c9 4 13 12 11 21-1 7-6 11-11 11s-10-4-11-11c-2-9 2-17 11-21z" fill="#3d1c38"/>
  <path d="M32 24c6 3.4 9 9 7.6 15.4-.8 4.8-4 7.6-7.6 7.6s-6.8-2.8-7.6-7.6C23 33 26 27.4 32 24z" fill="#8a4c7f"/>
  <path d="M32 16c0-4 3-7 7-8-.4 4.6-3 7.4-7 8z" fill="#4a6b3d"/>
  <g fill="#f4b76a">
    <circle cx="30" cy="36" r="1.3"/><circle cx="34.5" cy="39" r="1.3"/><circle cx="30.5" cy="42" r="1.3"/>
  </g>
</svg>
